# Blender v2.76 (sub 0) OBJ File: 'console.blend'
# www.blender.org
mtllib console.mtl
o Plane
v -1.200000 0.000000 -1.000000
v 1.278866 0.000000 -1.000000
v -1.200000 -0.000000 1.000000
v 1.278866 -0.000000 1.000000
v -3.610214 -0.693271 -1.000000
v -3.610214 -0.693271 1.000000
v 3.794093 -0.693271 -1.000000
v 3.794093 -0.693271 1.000000
vn 0.000000 -1.000000 -0.000000
vn 0.276400 -0.961000 -0.000000
vn -0.265700 -0.964100 -0.000000
usemtl None
s off
f 2//1 4//1 3//1
f 3//2 6//2 5//2
f 2//3 7//3 8//3
f 1//1 2//1 3//1
f 1//2 3//2 5//2
f 4//3 2//3 8//3
